<svg width="152" height="24" viewBox="0 0 152 24" fill="none" xmlns="http://www.w3.org/2000/svg">
<path d="M32.8349 1.41876C34.3182 1.41876 35.5889 1.67936 36.6513 2.18341V2.18536C37.5817 2.62737 38.3189 3.22866 38.8672 3.98712L39.0908 4.32208C39.6549 5.23821 39.9443 6.33273 39.9443 7.62091C39.9443 8.90766 39.6551 9.98399 39.0898 10.908C38.5953 11.7162 37.9138 12.3635 37.04 12.8465L36.6533 13.0438C35.5869 13.543 34.3177 13.7977 32.832 13.7977H28.9492V18.8143H25.7441V1.41876H32.8349ZM28.9492 11.1639H32.6093C33.8659 11.1639 34.8874 10.879 35.6133 10.2479L35.7509 10.1287V10.117C36.3887 9.49037 36.6914 8.64026 36.6914 7.61798C36.6914 6.59642 36.3898 5.72032 35.747 5.08868L35.6133 4.96564C34.8874 4.33466 33.8658 4.05061 32.6093 4.0506H28.9492V11.1639Z" fill="#010205" stroke="#010205" stroke-width="0.797331"/>
<path d="M44.4669 1.41504L48.9561 10.9561L49.3106 11.7109L49.6749 10.9609L54.3097 1.41504H57.3409L50.2696 15.2344C49.6256 16.4935 48.8688 17.4453 48.0079 18.1064L47.8351 18.2354C46.9015 18.8996 45.8989 19.2256 44.8165 19.2256C44.0718 19.2256 43.2968 19.074 42.4845 18.7656L43.2296 16.2979C43.7806 16.4537 44.27 16.541 44.6935 16.541C45.1886 16.541 45.6488 16.4282 46.0655 16.2041L46.2413 16.1016C46.645 15.8456 47.0028 15.4705 47.3214 15L47.4552 14.793L47.5899 14.6035L47.7286 14.4072L47.6192 14.1924L41.0948 1.41504H44.4669Z" fill="#010205" stroke="#010205" stroke-width="0.797331"/>
<path d="M74.4253 1.42174V16.1825H76.8452V22.579H73.936V18.8114H60.9292V22.579H58.02L58.0424 16.1796H58.351C58.9809 16.1584 59.5236 15.9013 59.9594 15.4286C60.3322 15.0242 60.619 14.4714 60.8344 13.7948L60.9223 13.4969C61.3075 12.0937 61.5602 10.1874 61.6821 7.78698L61.726 6.72838L61.9116 1.42174H74.4253ZM64.5395 4.43737L64.4643 7.08287C64.3834 9.23577 64.2105 11.0326 63.9526 12.4725V12.4745C63.6918 13.9141 63.306 14.9164 62.8198 15.535L62.313 16.1796H71.268V4.05065H64.5512L64.5395 4.43737Z" fill="#010205" stroke="#010205" stroke-width="0.797331"/>
<path d="M83.3167 1.41876V8.59064H91.9749V1.41876H95.1799V18.8113H91.9749V11.3553H83.3167V18.8113H80.1116V1.41876H83.3167Z" fill="#010205" stroke="#010205" stroke-width="0.797331"/>
<path d="M112.36 1.41876V3.99982H103.265V8.74591H111.297V11.2215H103.265V16.2274H112.68V18.8113H100.083V1.41876H112.36Z" fill="#010205" stroke="#010205" stroke-width="0.797331"/>
<path d="M124.156 1.41876C126.117 1.41882 127.588 1.81821 128.617 2.56232V2.56329C129.624 3.29537 130.134 4.32973 130.134 5.72345C130.134 6.45307 129.983 7.09323 129.688 7.65314L129.553 7.88849C129.166 8.50715 128.619 9.0011 127.904 9.367L127.035 9.81134L127.966 10.1024C128.916 10.3991 129.626 10.8671 130.125 11.492L130.187 11.575C130.687 12.2392 130.948 13.0699 130.948 14.0887C130.948 15.4951 130.477 16.5815 129.551 17.3846L129.36 17.5418C128.296 18.3672 126.735 18.8084 124.625 18.8084H116.498V1.41876H124.156ZM119.676 16.4901H124.475C125.459 16.49 126.271 16.2878 126.842 15.8143C127.428 15.3287 127.692 14.6155 127.692 13.7527C127.692 12.9112 127.425 12.2174 126.837 11.7469C126.267 11.2899 125.456 11.0946 124.475 11.0945H119.676V16.4901ZM119.679 8.9549H123.809C124.674 8.95485 125.399 8.78182 125.936 8.38654L126.041 8.3045L126.042 8.30353C126.601 7.83488 126.851 7.16075 126.851 6.34747C126.851 5.57629 126.621 4.95964 126.133 4.49591L126.032 4.40509L126.031 4.40411L125.924 4.32013C125.384 3.91679 124.66 3.74009 123.809 3.74005H119.679V8.9549Z" fill="#010205" stroke="#010205" stroke-width="0.797331"/>
<path d="M142.538 1.1082C144.163 1.10821 145.624 1.45236 146.925 2.13554L147.184 2.27617C148.471 3.00667 149.497 3.99363 150.269 5.24101L150.42 5.49394C151.206 6.85787 151.603 8.39515 151.603 10.115C151.603 11.7274 151.254 13.1793 150.563 14.4783L150.42 14.7361C149.682 16.0181 148.687 17.0396 147.437 17.8045L147.184 17.9539C145.815 18.7312 144.271 19.1219 142.538 19.1219C140.912 19.1219 139.448 18.7782 138.138 18.0945L137.878 17.9539C136.586 17.2232 135.558 16.236 134.793 14.99L134.644 14.7381L134.643 14.7371L134.501 14.4793C133.816 13.1805 133.472 11.7283 133.472 10.115C133.472 8.50176 133.816 7.04959 134.501 5.75077L134.643 5.49296C135.375 4.2117 136.367 3.19118 137.623 2.42656L137.878 2.27714C139.254 1.49954 140.804 1.1082 142.538 1.1082ZM142.54 3.89531C141.451 3.89531 140.457 4.15934 139.569 4.69316C138.682 5.22601 137.984 5.96838 137.481 6.91386C136.976 7.8624 136.729 8.933 136.729 10.115C136.729 11.1494 136.918 12.0984 137.303 12.9549L137.481 13.3162C137.921 14.143 138.507 14.8147 139.244 15.3269L139.569 15.5369C140.458 16.0708 141.451 16.3348 142.54 16.3348C143.493 16.3348 144.374 16.1327 145.174 15.7244L145.512 15.5369C146.288 15.0705 146.92 14.4439 147.403 13.6609L147.6 13.3162C148.104 12.3676 148.352 11.2971 148.352 10.115C148.352 8.933 148.104 7.8624 147.6 6.91386C147.16 6.08713 146.574 5.41533 145.837 4.90312L145.512 4.69316C144.623 4.15934 143.629 3.89531 142.54 3.89531Z" fill="#010205" stroke="#010205" stroke-width="0.797331"/>
<path d="M6.36481 5.60107L1.2803 21.7626L6.36481 5.60107ZM7.84164 6.14296L3.93256 18.2578L7.84164 6.14296ZM7.11528 13.9956L6.30453 16.5054L7.11528 13.9956ZM9.42396 6.83062L6.85909 14.7846L9.42396 6.83062ZM1.09645 2.77755L7.84164 6.13979L1.09645 2.77755ZM8.97789 8.23762L14.4723 10.871L8.97789 8.23762ZM9.45711 6.91618L15.7984 9.95518L9.45711 6.91618ZM2.62451 1.48146L19.2645 9.46083L2.62451 1.48146ZM1.2803 21.7626L2.04885 23.2615L1.2803 21.7626ZM7.11528 13.9987L8.62225 16.8127L7.11528 13.9987ZM1 2.59692L4.9362 9.88863L1 2.59692ZM19.2645 9.46083L20.0541 10.9978L19.2645 9.46083ZM8.54087 9.57808L10.5843 13.5551L8.54087 9.57808ZM4.21889 4.47293L5.78613 7.43271L4.21889 4.47293ZM7.91397 11.5175L10.2377 15.6846L7.91397 11.5175ZM7.80547 15.4691L4.01695 18.1944L7.80547 15.4691ZM17.646 8.68127L10.5843 13.5519L17.646 8.68127ZM19.2645 9.45766L10.2377 15.6846L19.2645 9.45766ZM8.62225 16.8096L1.34057 21.8228L8.62225 16.8096ZM19.9305 11.0421L2.06392 23.29L19.9305 11.0421ZM2.63355 1.47195L1 2.59692L2.63355 1.47195Z" fill="white"/>
<path d="M6.36481 5.60107L1.2803 21.7626L2.04885 23.2615M7.84164 6.14296L3.93256 18.2578M7.11528 13.9956L6.30453 16.5054M9.42396 6.83062L6.85909 14.7846M1.09645 2.77755L7.84164 6.13979M8.97789 8.23762L14.4723 10.871M9.45711 6.91618L15.7984 9.95518M2.62451 1.48146L19.2645 9.46083L20.0541 10.9978M7.11528 13.9987L8.62225 16.8127M4.9362 9.88863L1 2.59692L2.63355 1.47195M8.54087 9.57808L10.5843 13.5551M4.21889 4.47293L5.78613 7.43271M7.91397 11.5175L10.2377 15.6846L19.2645 9.45766M7.80547 15.4691L4.01695 18.1944M17.646 8.68127L10.5843 13.5519M8.62225 16.8096L1.34057 21.8228M19.9305 11.0421L2.06392 23.29" stroke="#010205" stroke-linecap="round" stroke-linejoin="round"/>
</svg>
