<svg width="60" height="60" viewBox="0 0 60 60" fill="none" xmlns="http://www.w3.org/2000/svg">
<path d="M47.1626 0.0264893C44.4459 0.0771151 40.208 0.397745 36.7558 1.81527C34.1478 2.88685 31.6903 4.86125 29.7594 6.72597C27.8285 4.86125 25.371 2.88685 22.7714 1.81527C19.3192 0.397745 15.0896 0.0771151 12.3729 0.0349269H7.89258V46.4504H12.3729V4.5575C14.7218 4.59969 18.3161 4.86969 21.0829 6.00033C24.8694 7.55286 28.5724 11.7548 29.7594 13.2398C30.9547 11.7548 34.6577 7.55286 38.4443 6.00033C41.211 4.86125 44.8054 4.59125 47.1626 4.5575V46.4419H51.6513V0.0264893H47.1626Z" fill="black"/>
<path d="M29.744 18.1491C27.7713 15.179 23.1572 10.5215 19.4208 9.01113C18.3007 8.5555 17.0134 8.2855 15.7178 8.12518L15.7345 46.432H20.2148V14.7994C24.0348 17.1703 27.3032 21.8363 29.744 25.4139C32.1847 21.8363 35.4447 17.1703 39.2647 14.7994V46.432H43.7451L43.7618 8.12518C42.4662 8.2855 41.1789 8.5555 40.0588 9.01113C36.3224 10.5299 31.7167 15.1875 29.744 18.1491Z" fill="black"/>
<path d="M55.0348 0.0253129V49.8411H37.9242C34.5305 49.8411 31.6216 51.2671 29.7409 53.5705C27.8601 51.2671 24.9512 49.8411 21.5575 49.8411H4.47199V0H0V54.3552H21.5575C25.0014 54.3552 27.5007 56.7346 27.5007 60H31.981C31.981 56.7262 34.4803 54.3552 37.9242 54.3552H59.465V0.0253129H55.0265H55.0348Z" fill="black"/>
</svg>
