<svg width="127" height="24" viewBox="0 0 127 24" fill="none" xmlns="http://www.w3.org/2000/svg">
<path d="M7.48926 1.5752C8.97248 1.5752 10.2432 1.83579 11.3057 2.33984V2.3418C12.369 2.84698 13.1798 3.56046 13.7451 4.47852C14.3092 5.39464 14.5986 6.48916 14.5986 7.77734C14.5986 9.06409 14.3094 10.1404 13.7441 11.0645C13.1789 11.9882 12.3694 12.7017 11.3076 13.2002C10.2412 13.6994 8.97202 13.9541 7.48633 13.9541H3.60352V18.9707H0.398438V1.5752H7.48926ZM3.60352 11.3203H7.26367C8.52019 11.3203 9.54168 11.0354 10.2676 10.4043L10.4053 10.2852V10.2734C11.043 9.6468 11.3457 8.79669 11.3457 7.77441C11.3457 6.6847 11.002 5.76062 10.2676 5.12207C9.54169 4.49109 8.52008 4.20704 7.26367 4.20703H3.60352V11.3203Z" fill="#010205" stroke="#010205" stroke-width="0.797331"/>
<path d="M19.1211 1.57147L23.6104 11.1125L23.9648 11.8674L24.3291 11.1174L28.9639 1.57147H31.9951L24.9238 15.3908C24.237 16.7338 23.4223 17.7279 22.4893 18.3918C21.5557 19.0561 20.5531 19.382 19.4707 19.382C18.726 19.382 17.951 19.2304 17.1387 18.9221L17.8838 16.4543C18.4348 16.6101 18.9242 16.6974 19.3477 16.6974C19.9134 16.6974 20.4338 16.5506 20.8955 16.258C21.2993 16.002 21.657 15.627 21.9756 15.1564L22.1094 14.9494L22.2441 14.7599L22.3828 14.5637L22.2734 14.3488L15.749 1.57147H19.1211Z" fill="#010205" stroke="#010205" stroke-width="0.797331"/>
<path d="M49.0801 1.57819V16.3389H51.5V22.7354H48.5908V18.9678H35.584V22.7354H32.6748L32.6973 16.336H33.0059C33.6357 16.3148 34.1784 16.0577 34.6143 15.585C35.0403 15.1228 35.3539 14.4667 35.5771 13.6534C35.9623 12.2501 36.215 10.3438 36.3369 7.94342L36.3809 6.88483L36.5664 1.57819H49.0801ZM39.1943 4.59381L39.1191 7.23932C39.0382 9.39221 38.8653 11.189 38.6074 12.629V12.6309C38.3466 14.0705 37.9609 15.0729 37.4746 15.6915L36.9678 16.336H45.9229V4.20709H39.2061L39.1943 4.59381Z" fill="#010205" stroke="#010205" stroke-width="0.797331"/>
<path d="M57.9707 1.5752V8.74707H66.6289V1.5752H69.834V18.9678H66.6289V11.5117H57.9707V18.9678H54.7656V1.5752H57.9707Z" fill="#010205" stroke="#010205" stroke-width="0.797331"/>
<path d="M87.0146 1.5752V4.15625H77.9189V8.90234H85.9512V11.3779H77.9189V16.3838H87.334V18.9678H74.7373V1.5752H87.0146Z" fill="#010205" stroke="#010205" stroke-width="0.797331"/>
<path d="M98.8105 1.5752C100.772 1.57525 102.243 1.97464 103.271 2.71875V2.71973C104.279 3.45181 104.789 4.48617 104.789 5.87988C104.789 6.71375 104.592 7.43103 104.208 8.04492C103.821 8.66358 103.274 9.15754 102.559 9.52344L101.689 9.96777L102.621 10.2588C103.571 10.5556 104.28 11.0236 104.779 11.6484L104.842 11.7314C105.342 12.3956 105.602 13.2263 105.603 14.2451C105.603 15.7453 105.067 16.8817 104.015 17.6982C102.95 18.5236 101.39 18.9648 99.2803 18.9648H91.1523V1.5752H98.8105ZM94.3311 16.6465H99.1299C100.114 16.6465 100.926 16.4442 101.497 15.9707C102.082 15.4851 102.347 14.7719 102.347 13.9092C102.347 13.0676 102.079 12.3739 101.492 11.9033C100.922 11.4463 100.111 11.251 99.1299 11.251H94.3311V16.6465ZM94.334 9.11133H98.4639C99.3867 9.11128 100.15 8.91433 100.695 8.46094L100.697 8.45996C101.256 7.99131 101.506 7.31719 101.506 6.50391C101.506 5.68114 101.244 5.0345 100.687 4.56152L100.686 4.56055L100.579 4.47656C100.039 4.07322 99.3151 3.89653 98.4639 3.89648H94.334V9.11133Z" fill="#010205" stroke="#010205" stroke-width="0.797331"/>
<path d="M117.191 1.26465C118.925 1.26466 120.472 1.65559 121.838 2.43262C123.211 3.21184 124.287 4.28271 125.074 5.65039C125.859 7.01433 126.257 8.5516 126.257 10.2715C126.257 11.9913 125.859 13.5287 125.074 14.8926C124.336 16.1746 123.341 17.196 122.091 17.9609L121.838 18.1104C120.469 18.8876 118.925 19.2783 117.191 19.2783C115.458 19.2783 113.908 18.8878 112.532 18.1104C111.154 17.331 110.076 16.2603 109.298 14.8945L109.297 14.8936C108.518 13.5299 108.126 11.9923 108.126 10.2715C108.126 8.55063 108.518 7.01309 109.297 5.64941C110.078 4.28276 111.154 3.21278 112.532 2.43359C113.908 1.65599 115.458 1.26465 117.191 1.26465ZM117.194 4.05176C116.105 4.05176 115.111 4.3158 114.223 4.84961C113.336 5.38246 112.638 6.12483 112.135 7.07031C111.63 8.01885 111.383 9.08946 111.383 10.2715C111.383 11.4536 111.63 12.5241 112.135 13.4727C112.574 14.2994 113.161 14.9712 113.897 15.4834L114.223 15.6934C115.111 16.2272 116.105 16.4912 117.194 16.4912C118.283 16.4912 119.277 16.2272 120.166 15.6934C121.053 15.1605 121.751 14.4182 122.254 13.4727C122.758 12.5241 123.006 11.4536 123.006 10.2715C123.006 9.08945 122.758 8.01885 122.254 7.07031C121.814 6.24358 121.228 5.57179 120.491 5.05957L120.166 4.84961C119.277 4.31579 118.283 4.05176 117.194 4.05176Z" fill="#010205" stroke="#010205" stroke-width="0.797331"/>
</svg>
