<svg width="320" height="49" viewBox="0 0 320 49" fill="none" xmlns="http://www.w3.org/2000/svg">
<path d="M69.1261 2.89664C72.2489 2.89664 74.924 3.4287 77.1606 4.4578V4.46178C79.1194 5.36422 80.6714 6.59185 81.8257 8.14037L82.2964 8.82425C83.484 10.6947 84.0933 12.9293 84.0933 15.5594C84.0933 18.1865 83.4844 20.384 82.2943 22.2705C81.2533 23.9206 79.8185 25.2421 77.979 26.2283L77.1649 26.6311C74.9198 27.6503 72.2478 28.1703 69.12 28.1703H60.9457V38.4125H54.1981V2.89664H69.1261ZM60.9457 22.793H68.6512C71.2966 22.793 73.4472 22.2113 74.9754 20.9228L75.2651 20.6794V20.6555C76.6078 19.3762 77.2451 17.6405 77.2451 15.5534C77.2451 13.4677 76.6101 11.679 75.2569 10.3894L74.9754 10.1382C73.4472 8.84993 71.2964 8.27 68.6512 8.26998H60.9457V22.793Z" fill="#010205" stroke="#010205" stroke-width="0.797331"/>
<path d="M93.6145 2.88904L103.065 22.3687L103.812 23.9098L104.579 22.3785L114.336 2.88904H120.718L105.831 31.1036C104.475 33.6742 102.882 35.6175 101.069 36.9672L100.705 37.2306C98.74 38.5867 96.6293 39.2523 94.3505 39.2523C92.7828 39.2523 91.1512 38.9427 89.4411 38.3131L91.0097 33.2749C92.1697 33.593 93.2 33.7712 94.0916 33.7712C95.1339 33.7712 96.1027 33.5409 96.98 33.0834L97.3501 32.8741C98.2 32.3514 98.9533 31.5856 99.624 30.625L99.9057 30.2024L100.189 29.8155L100.481 29.4147L100.251 28.9761L86.5154 2.88904H93.6145Z" fill="#010205" stroke="#010205" stroke-width="0.797331"/>
<path d="M156.685 2.90272V33.0393H161.779V46.0988H155.655V38.4066H128.272V46.0988H122.147L122.194 33.0333H122.844C124.17 32.9901 125.313 32.4652 126.23 31.5001C127.015 30.6744 127.619 29.5458 128.072 28.1644L128.257 27.5562C129.068 24.6913 129.6 20.7993 129.857 15.8984L129.949 13.7371L130.34 2.90272H156.685ZM135.873 9.05963L135.714 14.4609C135.544 18.8564 135.18 22.5249 134.637 25.4647V25.4688C134.088 28.408 133.276 30.4543 132.252 31.7173L131.185 33.0333H150.038V8.27008H135.897L135.873 9.05963Z" fill="#010205" stroke="#010205" stroke-width="0.797331"/>
<path d="M175.404 2.89664V17.5392H193.631V2.89664H200.379V38.4064H193.631V23.1837H175.404V38.4064H168.656V2.89664H175.404Z" fill="#010205" stroke="#010205" stroke-width="0.797331"/>
<path d="M236.547 2.89664V8.1663H217.4V17.8562H234.309V22.9106H217.4V33.1309H237.221V38.4064H210.701V2.89664H236.547Z" fill="#010205" stroke="#010205" stroke-width="0.797331"/>
<path d="M261.381 2.89664C265.509 2.89676 268.606 3.71218 270.773 5.23141C272.893 6.72607 273.966 8.83987 273.966 11.6854C273.966 13.175 273.648 14.482 273.027 15.6252L272.743 16.1057C271.928 17.3688 270.777 18.3772 269.272 19.1243L267.442 20.0315L269.402 20.6257C271.402 21.2315 272.897 22.187 273.947 23.4628L274.078 23.6323C275.131 24.9884 275.68 26.6844 275.68 28.7644C275.68 31.6358 274.688 33.8539 272.739 35.4936L272.337 35.8145C270.097 37.4997 266.811 38.4005 262.368 38.4005H245.259V2.89664H261.381ZM251.95 33.6673H262.053C264.124 33.6671 265.834 33.2543 267.036 32.2875C268.27 31.2961 268.825 29.84 268.825 28.0784C268.825 26.3604 268.263 24.9439 267.025 23.9833C265.825 23.0502 264.118 22.6515 262.053 22.6513H251.95V33.6673ZM251.956 18.2829H260.651C262.472 18.2828 263.998 17.9296 265.128 17.1225L265.349 16.955L265.352 16.953C266.528 15.9962 267.055 14.6199 267.055 12.9594C267.055 11.3849 266.571 10.1259 265.543 9.17915L265.331 8.99373L265.328 8.99173L265.103 8.82027C263.966 7.99678 262.442 7.63602 260.651 7.63594H251.956V18.2829Z" fill="#010205" stroke="#010205" stroke-width="0.797331"/>
<path d="M300.08 2.26257C303.501 2.26259 306.577 2.96523 309.316 4.36006L309.861 4.64718C312.571 6.13862 314.73 8.15366 316.356 10.7004L316.674 11.2168C318.328 14.0015 319.164 17.1401 319.164 20.6515C319.164 23.9434 318.429 26.9077 316.975 29.5599L316.674 30.0862C315.12 32.7036 313.025 34.7892 310.394 36.3509L309.861 36.6559C306.979 38.2429 303.728 39.0405 300.08 39.0405C296.657 39.0405 293.575 38.3388 290.817 36.9429L290.269 36.6559C287.549 35.164 285.385 33.1485 283.775 30.6046L283.461 30.0903L283.459 30.0882L283.16 29.5619C281.718 26.9102 280.994 23.9453 280.994 20.6515C280.994 17.3578 281.718 14.3929 283.16 11.7412L283.459 11.2148C285 8.59889 287.088 6.51532 289.733 4.95423L290.269 4.64916C293.166 3.06156 296.429 2.26257 300.08 2.26257ZM300.084 7.95292C297.792 7.95292 295.699 8.49198 293.829 9.58187C291.962 10.6698 290.493 12.1854 289.434 14.1158C288.371 16.0524 287.851 18.2382 287.851 20.6515C287.851 22.7634 288.248 24.7009 289.059 26.4496L289.434 27.1872C290.36 28.8753 291.594 30.2467 293.145 31.2924L293.829 31.7212C295.701 32.8112 297.792 33.3502 300.084 33.3502C302.09 33.3502 303.945 32.9376 305.629 32.104L306.341 31.7212C307.975 30.7689 309.305 29.4896 310.322 27.891L310.737 27.1872C311.798 25.2505 312.32 23.0649 312.32 20.6515C312.32 18.2382 311.798 16.0524 310.737 14.1158C309.811 12.4279 308.577 11.0563 307.025 10.0105L306.341 9.58187C304.469 8.49198 302.377 7.95292 300.084 7.95292Z" fill="#010205" stroke="#010205" stroke-width="0.797331"/>
<path d="M13.3996 11.4355L2.69539 44.432L4.31339 47.4922M16.5087 12.5419L8.2791 37.2763M14.9796 28.5743L13.2727 33.6985M19.8399 13.9459L14.4402 30.1852M2.30834 5.67083L16.5087 12.5354M18.9008 16.8185L30.468 22.195M19.9097 14.1205L33.2598 20.3252M5.52531 3.02465L40.5569 19.3159L42.2192 22.4538M14.9796 28.5807L18.1521 34.3259M10.392 20.1893L2.10529 5.30205L5.54434 3.00523M17.9808 19.5552L22.2828 27.675M8.8819 9.13223L12.1813 15.1751M16.661 23.5149L21.5531 32.0227L40.5569 19.3094M16.4326 31.5827L8.45676 37.1469M37.1495 17.7243L22.2828 27.6685M18.1521 34.3196L2.82228 44.5549M41.959 22.5443L4.34512 47.5504" stroke="#010205" stroke-linecap="round" stroke-linejoin="round"/>
</svg>
